<svg id="i_fav" data-name="i fav" xmlns="http://www.w3.org/2000/svg" viewBox="0 0 34.84 33.14" width="23" height="23"><defs><style>.cls-1{fill:#cce9f6;}.cls-1,.cls-2{fill-rule:evenodd;}.cls-2{fill:#0093d3;}</style></defs><title>i_fav</title><g id="_" data-name="*"><polygon class="cls-1" points="34.16 12.82 22.97 10.67 17.47 0.69 11.96 10.67 0.77 12.82 8.56 21.14 7.15 32.44 17.47 27.61 27.78 32.44 26.37 21.14 34.16 12.82"/></g><g id="_copy_2" data-name="* copy 2"><path class="cls-2" d="M51.54,36.42,39.86,34.18,34.12,23.76,28.37,34.18,16.7,36.42l8.13,8.68L23.35,56.9l10.77-5.05L44.88,56.9,43.41,45.1ZM34.11,49.73l-8.48,4,1.16-9.29-6.4-6.83,9.19-1.77,4.52-8.2,4.52,8.2,9.19,1.77-6.4,6.83,1.16,9.29Z" transform="translate(-16.7 -23.76)"/></g></svg>