<svg
 xmlns="http://www.w3.org/2000/svg"
 width="29px" height="23px">
<path fill-rule="evenodd"  opacity="0.702" fill="rgb(255, 255, 255)" d="M25.946,22.925 L4.117,22.925 C2.387,22.925 0.984,21.640 0.984,19.855 L0.984,7.052 C0.984,5.260 2.387,3.893 4.117,3.893 L6.459,3.893 C7.324,3.893 8.382,3.191 8.818,2.421 L9.591,1.433 C10.027,0.662 11.077,0.038 11.943,0.038 L18.324,0.038 C19.189,0.038 20.237,0.662 20.673,1.433 L21.456,2.421 C21.892,3.191 22.941,3.893 23.806,3.893 C23.806,3.893 24.335,3.893 26.023,3.893 C27.711,3.893 28.999,5.260 28.999,7.052 L28.999,19.855 C28.999,21.640 27.676,22.925 25.946,22.925 ZM15.032,6.835 C11.716,6.835 9.021,9.615 9.021,13.035 C9.021,16.462 11.716,19.233 15.032,19.233 C18.349,19.233 21.044,16.462 21.044,13.035 C21.044,9.615 18.349,6.835 15.032,6.835 ZM15.032,16.676 C13.234,16.676 11.766,15.161 11.766,13.308 C11.766,11.451 13.234,9.938 15.032,9.938 C16.830,9.938 18.299,11.451 18.299,13.308 C18.299,15.161 16.830,16.676 15.032,16.676 Z"/>
</svg>
