<?xml version="1.0" encoding="utf-8"?>
<!-- Generator: Adobe Illustrator 27.2.0, SVG Export Plug-In . SVG Version: 6.00 Build 0)  -->
<svg version="1.1" id="Layer_1" xmlns="http://www.w3.org/2000/svg" xmlns:xlink="http://www.w3.org/1999/xlink" x="0px" y="0px"
	 viewBox="0 0 315 45" style="enable-background:new 0 0 315 45;" xml:space="preserve">
<style type="text/css">
	.st0{fill:#226BB5;}
	.st1{fill:#61B046;}
	.st2{fill:#FFC40C;}
	.st3{fill:#D74C4D;}
	.st4{fill:#A0CF0A;}
	.st5{fill:#325983;}
	.st6{fill:#A0A0A0;}
</style>
<g>
	<path class="st0" d="M12.55,33.62c3.41,0,6.44-0.94,8.63-2.64c2.15-1.68,3.47-4.1,3.47-7.24c0-3.41-1.53-5.61-3.59-7.06
		c-2.64-1.84-5.99-2.44-8.76-3.32c-2.35-0.78-4.01-1.66-4.01-3.36c0-0.83,0.36-1.57,1.16-2.11c0.74-0.47,1.9-0.78,3.41-0.78
		c2.94,0,5.58,1.07,7.71,2.22c0.36,0.23,0.69,0.09,0.88-0.23l2.11-4.48c0.18-0.32,0.09-0.69-0.27-0.88c-2.02-1.1-5.22-2.4-10.06-2.4
		c-3.74,0-6.68,0.88-8.67,2.35C2.4,5.3,1.3,7.61,1.3,10.28c0,3.65,1.66,5.67,3.92,7.15c2.67,1.66,5.81,2.26,8.3,3.18
		c2.26,0.78,3.92,1.81,3.92,3.68c0,0.88-0.32,1.93-1.34,2.67c-0.74,0.56-1.93,0.92-3.59,0.92c-3.65,0-6.32-1.52-8.43-2.85
		c-0.36-0.23-0.69-0.09-0.88,0.27l-2.11,4.48c-0.18,0.36-0.05,0.69,0.27,0.88C3.7,32.11,7.44,33.62,12.55,33.62L12.55,33.62z"/>
	<path class="st1" d="M32.55,21.87c0-3.65,2.22-6.26,5.78-6.26s5.78,2.62,5.78,6.26s-2.22,6.26-5.78,6.26
		C34.77,28.13,32.55,25.52,32.55,21.87L32.55,21.87z M26.12,21.87c0,7.37,5.38,11.75,12.2,11.75c6.81,0,12.24-4.39,12.24-11.75
		s-5.43-11.81-12.24-11.81C31.52,10.06,26.12,14.52,26.12,21.87L26.12,21.87z"/>
	<path class="st2" d="M58.35,12.08v-0.83c0-0.45-0.34-0.74-0.74-0.74h-2.42c-1.46,0-3.16,1.19-3.16,3.32v18.54
		c0,0.4,0.29,0.74,0.74,0.74h5.04c0.4,0,0.74-0.34,0.74-0.74V22.01c0.05-1.88,0.25-3.5,0.88-4.64c0.65-1.03,1.62-1.77,3.11-1.77
		c1.43,0,2.33,0.54,2.87,1.23c0.74,0.99,0.99,2.51,0.99,4.04v11.5c0,0.4,0.29,0.74,0.74,0.74h5.04c0.4,0,0.74-0.34,0.74-0.74V22.16
		c0-1.93,0.2-3.61,0.88-4.78c0.6-1.03,1.62-1.77,3.11-1.77c1.43,0,2.33,0.54,2.87,1.23c0.74,0.99,0.99,2.51,0.99,4.04v11.5
		c0,0.4,0.29,0.74,0.74,0.74h5.04c0.4,0,0.74-0.34,0.74-0.74V19.23c0-3.27-0.94-5.52-2.47-6.91c-1.68-1.59-3.95-2.22-6.37-2.22
		c-3.01,0-5.58,1.14-7.31,3.27c-1.73-2.33-4.3-3.27-7.06-3.27c-2.17,0-4.1,0.69-5.58,1.97h-0.14V12.08z"/>
	<path class="st3" d="M95.32,21.87c0-3.65,2.22-6.26,5.78-6.26s5.78,2.62,5.78,6.26s-2.22,6.26-5.78,6.26
		C97.54,28.13,95.32,25.52,95.32,21.87L95.32,21.87z M88.89,21.87c0,7.37,5.38,11.75,12.2,11.75c6.81,0,12.24-4.39,12.24-11.75
		s-5.43-11.81-12.24-11.81C94.27,10.06,88.89,14.52,88.89,21.87L88.89,21.87z"/>
	<path class="st4" d="M121.21,12.79v-1.53c0-0.45-0.34-0.74-0.74-0.74h-1.84c-2.46,0-3.74,2.4-3.74,3.79v18.07
		c0,0.4,0.29,0.74,0.74,0.74h5.04c0.4,0,0.74-0.34,0.74-0.74V22.5c0-3.27,1.43-6.86,5.29-6.86c1.39,0,2.36,0.45,2.96,1.14
		c0.94,1.03,1.14,2.67,1.14,4.3v11.3c0,0.4,0.34,0.74,0.74,0.74h5.09c0.45,0,0.74-0.34,0.74-0.74V19.4c0-3.36-1.03-5.69-2.62-7.11
		c-1.73-1.59-4.1-2.22-6.61-2.22c-2.42,0-4.84,0.74-6.77,2.71h-0.16V12.79z"/>
	<path class="st5" d="M146.83,29.72c0-2.22-1.73-3.95-3.9-3.95s-3.9,1.73-3.9,3.95c0,2.17,1.73,3.9,3.9,3.9
		S146.83,31.89,146.83,29.72L146.83,29.72z M154.46,15.64h6.23c0.45,0,0.74-0.34,0.74-0.79v-3.61c0-0.45-0.29-0.74-0.74-0.74h-6.23
		V6.07c0-0.45-0.29-0.74-0.74-0.74h-5.04c-0.4,0-0.74,0.29-0.74,0.74v4.44h-2.47c-0.4,0-0.74,0.29-0.74,0.74v3.61
		c0,0.45,0.34,0.79,0.74,0.79h2.47v9.48c0,2.33,0.45,4.64,1.77,6.32c1.14,1.34,2.96,2.17,5.78,2.17c2.91,0,5.58-0.83,7.4-2.13
		c0.34-0.25,0.49-0.65,0.29-0.99l-1.73-3.65c-0.14-0.4-0.6-0.45-1.03-0.09c-1.19,0.94-2.27,1.23-3.21,1.23
		c-1.14,0-1.88-0.4-2.27-1.19c-0.34-0.65-0.49-1.48-0.49-2.56v-8.59H154.46z M171.95,4.76c0-2.08-1.68-3.76-3.76-3.76
		c-2.08,0-3.76,1.68-3.76,3.76s1.68,3.76,3.76,3.76C170.28,8.51,171.95,6.83,171.95,4.76L171.95,4.76z M164.95,31.29
		c0,5.33-0.88,7-3.45,8.94c-0.4,0.29-0.54,0.65-0.2,0.99l3.45,3.45c0.45,0.45,0.69,0.4,1.28,0.09c3.5-2.02,5.49-6.23,5.49-13.38
		V11.25c0-0.4-0.34-0.74-0.74-0.74h-2.4c-2.44,0-3.43,1.48-3.43,3.07V31.29L164.95,31.29z"/>
</g>
<g>
	<path class="st6" d="M187.18,18.67v-8.66h2.97c0.98,0,1.72,0.2,2.24,0.59c0.51,0.39,0.77,0.98,0.77,1.75c0,0.4-0.11,0.75-0.32,1.07
		c-0.21,0.32-0.53,0.56-0.94,0.74c0.47,0.13,0.83,0.37,1.09,0.72c0.26,0.35,0.38,0.77,0.38,1.26c0,0.81-0.26,1.44-0.78,1.87
		s-1.27,0.65-2.24,0.65H187.18z M188.69,13.66h1.47c0.47,0,0.83-0.11,1.1-0.32c0.26-0.21,0.39-0.51,0.39-0.9
		c0-0.43-0.12-0.74-0.37-0.93c-0.24-0.19-0.62-0.29-1.14-0.29h-1.46V13.66z M188.69,14.77v2.7h1.67c0.47,0,0.84-0.12,1.11-0.35
		c0.27-0.23,0.4-0.56,0.4-0.97c0-0.9-0.46-1.36-1.38-1.38H188.69z"/>
	<path class="st6" d="M197.37,17.64c0.36,0,0.66-0.11,0.9-0.32c0.24-0.21,0.36-0.47,0.38-0.78h1.36c-0.02,0.4-0.14,0.77-0.37,1.12
		s-0.55,0.62-0.95,0.82c-0.4,0.2-0.83,0.3-1.3,0.3c-0.9,0-1.61-0.29-2.14-0.87c-0.53-0.58-0.79-1.39-0.79-2.41v-0.15
		c0-0.98,0.26-1.76,0.78-2.35c0.52-0.59,1.24-0.88,2.14-0.88c0.76,0,1.39,0.22,1.87,0.67c0.48,0.45,0.73,1.03,0.76,1.76h-1.36
		c-0.02-0.37-0.14-0.67-0.38-0.91c-0.24-0.24-0.54-0.36-0.9-0.36c-0.47,0-0.83,0.17-1.08,0.51c-0.25,0.34-0.38,0.85-0.39,1.54v0.23
		c0,0.7,0.12,1.22,0.38,1.56C196.53,17.47,196.89,17.64,197.37,17.64z"/>
	<path class="st6" d="M203.93,18.79c-0.92,0-1.66-0.29-2.23-0.87c-0.57-0.58-0.85-1.34-0.85-2.3v-0.18c0-0.64,0.12-1.22,0.37-1.72
		c0.25-0.51,0.6-0.9,1.04-1.18c0.45-0.28,0.95-0.42,1.5-0.42c0.88,0,1.55,0.28,2.03,0.84c0.48,0.56,0.72,1.35,0.72,2.37v0.58h-4.2
		c0.04,0.53,0.22,0.95,0.53,1.26c0.31,0.31,0.7,0.46,1.17,0.46c0.66,0,1.2-0.27,1.62-0.8l0.78,0.74c-0.26,0.38-0.6,0.68-1.03,0.89
		C204.95,18.68,204.47,18.79,203.93,18.79z M203.76,13.28c-0.4,0-0.72,0.14-0.96,0.42c-0.24,0.28-0.4,0.66-0.47,1.16h2.75v-0.11
		c-0.03-0.48-0.16-0.85-0.39-1.1C204.47,13.4,204.16,13.28,203.76,13.28z"/>
	<path class="st6" d="M210.39,15.4c0-0.63,0.12-1.2,0.37-1.7s0.6-0.89,1.05-1.17c0.45-0.27,0.97-0.41,1.56-0.41
		c0.87,0,1.57,0.28,2.11,0.84c0.54,0.56,0.83,1.3,0.88,2.22l0.01,0.34c0,0.63-0.12,1.2-0.37,1.7c-0.24,0.5-0.59,0.89-1.05,1.16
		c-0.45,0.27-0.98,0.41-1.57,0.41c-0.91,0-1.63-0.3-2.18-0.91c-0.55-0.6-0.82-1.41-0.82-2.42V15.4z M211.84,15.52
		c0,0.66,0.14,1.18,0.41,1.55c0.27,0.37,0.65,0.56,1.14,0.56s0.87-0.19,1.14-0.57c0.27-0.38,0.41-0.94,0.41-1.67
		c0-0.65-0.14-1.17-0.42-1.55c-0.28-0.38-0.66-0.57-1.14-0.57c-0.47,0-0.85,0.19-1.12,0.56C211.98,14.22,211.84,14.78,211.84,15.52z
		"/>
	<path class="st6" d="M220.62,12.6c0.81,0,1.46,0.27,1.94,0.81c0.49,0.54,0.73,1.27,0.73,2.2v0.07c0,0.93-0.27,1.68-0.79,2.25
		c-0.53,0.57-1.25,0.86-2.16,0.86c-0.88,0-1.6-0.29-2.14-0.88c-0.54-0.59-0.81-1.39-0.81-2.4V15.1c0-1.39,0.25-2.48,0.74-3.29
		c0.49-0.81,1.22-1.31,2.2-1.52c0.55-0.11,0.9-0.23,1.06-0.35c0.16-0.12,0.24-0.29,0.24-0.51h1.17c0,0.4-0.07,0.73-0.2,0.97
		c-0.13,0.25-0.33,0.45-0.6,0.61c-0.27,0.16-0.73,0.3-1.39,0.44c-0.6,0.13-1.06,0.35-1.38,0.68s-0.53,0.77-0.63,1.35
		C219.18,12.89,219.85,12.6,220.62,12.6z M220.34,13.76c-0.47,0-0.83,0.16-1.1,0.47c-0.27,0.32-0.4,0.8-0.4,1.45
		c0,0.62,0.13,1.1,0.39,1.44c0.26,0.34,0.63,0.52,1.12,0.52c0.48,0,0.85-0.17,1.11-0.52c0.26-0.35,0.4-0.87,0.4-1.57
		c0-0.55-0.13-0.99-0.4-1.32C221.2,13.92,220.83,13.76,220.34,13.76z"/>
	<path class="st6" d="M227.17,14.28h1.41c0.53,0,0.99,0.09,1.38,0.27c0.39,0.18,0.69,0.44,0.89,0.77c0.2,0.33,0.31,0.71,0.31,1.15
		c0,0.66-0.23,1.19-0.7,1.59s-1.09,0.6-1.87,0.61h-2.87V13.4h-1.86v-1.17h3.3V14.28z M227.17,15.44v2.08h1.41
		c0.35,0,0.63-0.09,0.83-0.26s0.31-0.43,0.31-0.75c0-0.33-0.1-0.58-0.3-0.77c-0.2-0.19-0.47-0.28-0.81-0.29H227.17z"/>
	<path class="st6" d="M237.32,12.24v6.43h-1.44v-2.36h-1.35l-1.37,2.36h-1.5l1.52-2.6c-0.4-0.17-0.7-0.4-0.91-0.71
		c-0.21-0.31-0.32-0.66-0.32-1.06c0-0.6,0.23-1.09,0.69-1.47c0.46-0.38,1.09-0.58,1.87-0.59H237.32z M233.39,14.33
		c0,0.27,0.1,0.49,0.3,0.66s0.46,0.25,0.77,0.25h1.42v-1.85h-1.33c-0.35,0-0.63,0.09-0.84,0.27S233.39,14.06,233.39,14.33z"/>
	<path class="st6" d="M239.04,18.67v-6.43h2.61c0.88,0,1.55,0.15,2.01,0.46c0.46,0.31,0.69,0.75,0.69,1.32c0,0.3-0.09,0.56-0.28,0.8
		c-0.18,0.24-0.46,0.42-0.82,0.54c0.42,0.09,0.75,0.26,1,0.53s0.37,0.58,0.37,0.94c0,0.6-0.22,1.05-0.66,1.37
		c-0.44,0.31-1.08,0.47-1.91,0.47H239.04z M240.48,14.9h1.19c0.82,0,1.23-0.24,1.23-0.73c0-0.51-0.39-0.77-1.17-0.78h-1.25V14.9z
		 M240.48,15.93v1.6h1.58c0.74,0,1.11-0.27,1.11-0.8c0-0.54-0.38-0.8-1.13-0.8H240.48z"/>
	<path class="st6" d="M251.33,12.24v6.43h-1.45V13.4h-1.82l-0.12,2.24c-0.08,1.08-0.28,1.85-0.62,2.32c-0.34,0.47-0.86,0.7-1.55,0.7
		h-0.45l-0.01-1.2l0.3-0.03c0.32-0.04,0.55-0.24,0.69-0.58c0.14-0.34,0.24-0.97,0.28-1.88l0.12-2.75H251.33z"/>
	<path class="st6" d="M255.7,18.79c-0.92,0-1.66-0.29-2.23-0.87c-0.57-0.58-0.85-1.34-0.85-2.3v-0.18c0-0.64,0.12-1.22,0.37-1.72
		c0.25-0.51,0.6-0.9,1.04-1.18c0.45-0.28,0.95-0.42,1.5-0.42c0.88,0,1.55,0.28,2.03,0.84c0.48,0.56,0.72,1.35,0.72,2.37v0.58h-4.2
		c0.04,0.53,0.22,0.95,0.53,1.26c0.31,0.31,0.7,0.46,1.17,0.46c0.66,0,1.2-0.27,1.62-0.8l0.78,0.74c-0.26,0.38-0.6,0.68-1.03,0.89
		C256.72,18.68,256.23,18.79,255.7,18.79z M255.53,13.28c-0.4,0-0.72,0.14-0.96,0.42c-0.24,0.28-0.4,0.66-0.47,1.16h2.75v-0.11
		c-0.03-0.48-0.16-0.85-0.39-1.1C256.24,13.4,255.93,13.28,255.53,13.28z"/>
	<path class="st6" d="M264.85,18.67h-1.44v-2.6h-2.5v2.6h-1.44v-6.43h1.44v2.68h2.5v-2.68h1.44V18.67z"/>
	<path class="st6" d="M270.4,12.24h1.44v6.43h-1.44v-4.29l-2.52,4.29h-1.44v-6.43h1.44v4.29L270.4,12.24z"/>
	<path class="st6" d="M278.53,12.24v6.43h-1.44v-2.36h-1.35l-1.37,2.36h-1.5l1.52-2.6c-0.4-0.17-0.7-0.4-0.91-0.71
		c-0.21-0.31-0.32-0.66-0.32-1.06c0-0.6,0.23-1.09,0.69-1.47c0.46-0.38,1.09-0.58,1.87-0.59H278.53z M274.6,14.33
		c0,0.27,0.1,0.49,0.3,0.66s0.46,0.25,0.77,0.25h1.42v-1.85h-1.33c-0.35,0-0.63,0.09-0.84,0.27S274.6,14.06,274.6,14.33z"/>
	<path class="st6" d="M193.75,24.81h-2.7v7.44h-1.49v-7.44h-2.67V23.6h6.87V24.81z"/>
	<path class="st6" d="M197.73,32.26c-0.06-0.12-0.12-0.32-0.17-0.6c-0.46,0.48-1.02,0.72-1.69,0.72c-0.65,0-1.17-0.18-1.58-0.55
		c-0.41-0.37-0.61-0.82-0.61-1.37c0-0.69,0.25-1.21,0.76-1.58c0.51-0.37,1.24-0.55,2.19-0.55h0.89V27.9c0-0.33-0.09-0.6-0.28-0.8
		c-0.19-0.2-0.47-0.3-0.85-0.3c-0.33,0-0.6,0.08-0.81,0.25c-0.21,0.16-0.32,0.37-0.32,0.63h-1.44c0-0.35,0.12-0.68,0.35-0.99
		c0.23-0.31,0.55-0.55,0.95-0.72c0.4-0.17,0.85-0.26,1.35-0.26c0.75,0,1.35,0.19,1.8,0.57c0.45,0.38,0.68,0.91,0.69,1.6v2.9
		c0,0.58,0.08,1.04,0.24,1.38v0.1H197.73z M196.14,31.22c0.28,0,0.55-0.07,0.81-0.21c0.25-0.14,0.44-0.32,0.57-0.56v-1.21h-0.78
		c-0.53,0-0.94,0.09-1.21,0.28c-0.27,0.19-0.4,0.45-0.4,0.79c0,0.28,0.09,0.5,0.28,0.66C195.59,31.13,195.83,31.22,196.14,31.22z"/>
	<path class="st6" d="M200.5,31.1c0.4-0.45,0.67-0.87,0.81-1.27c0.14-0.4,0.22-0.92,0.25-1.54l0.08-2.46h4.46v5.28h0.89v3.07h-1.44
		v-1.91h-4.13v1.91h-1.46l0.01-3.07H200.5z M202.19,31.1h2.47v-4.04h-1.62L203,28.3C202.94,29.48,202.67,30.41,202.19,31.1z"/>
	<path class="st6" d="M213.69,29.67h-0.77v2.59h-1.45v-2.59h-0.76l-1.48,2.59h-1.77l2.13-3.35l-2.02-3.09h1.77l1.46,2.53h0.68v-2.53
		h1.45v2.53h0.68l1.46-2.53h1.77l-2.01,3.07l2.15,3.36h-1.8L213.69,29.67z"/>
	<path class="st6" d="M221.87,25.82h1.44v6.43h-1.44v-4.29l-2.52,4.29h-1.44v-6.43h1.44v4.29L221.87,25.82z"/>
	<path class="st6" d="M227.13,29.71h-0.73v2.54h-1.45v-6.43h1.45v2.57h0.64l1.78-2.57h1.78l-2.32,3.08l2.52,3.35h-1.88L227.13,29.71
		z"/>
	<path class="st6" d="M235.61,25.82h1.44v6.43h-1.44v-4.29l-2.52,4.29h-1.44v-6.43h1.44v4.29L235.61,25.82z"/>
	<path class="st6" d="M241.22,31.22c0.36,0,0.66-0.11,0.9-0.32c0.24-0.21,0.36-0.47,0.38-0.78h1.36c-0.02,0.4-0.14,0.77-0.37,1.12
		c-0.23,0.35-0.55,0.62-0.95,0.82c-0.4,0.2-0.83,0.3-1.3,0.3c-0.9,0-1.61-0.29-2.14-0.87c-0.53-0.58-0.79-1.39-0.79-2.41v-0.15
		c0-0.98,0.26-1.76,0.78-2.35c0.52-0.59,1.24-0.88,2.14-0.88c0.76,0,1.39,0.22,1.87,0.67c0.48,0.45,0.73,1.03,0.76,1.76h-1.36
		c-0.02-0.37-0.14-0.67-0.38-0.91c-0.24-0.24-0.54-0.36-0.9-0.36c-0.47,0-0.83,0.17-1.08,0.51c-0.25,0.34-0.38,0.85-0.39,1.54v0.23
		c0,0.7,0.12,1.22,0.38,1.56S240.75,31.22,241.22,31.22z"/>
	<path class="st6" d="M250.02,26.97h-2.09v5.29h-1.45v-5.29h-2.06v-1.15h5.59V26.97z"/>
	<path class="st6" d="M254.72,32.26c-0.06-0.12-0.12-0.32-0.17-0.6c-0.46,0.48-1.02,0.72-1.69,0.72c-0.65,0-1.17-0.18-1.58-0.55
		c-0.41-0.37-0.61-0.82-0.61-1.37c0-0.69,0.25-1.21,0.76-1.58c0.51-0.37,1.24-0.55,2.19-0.55h0.89V27.9c0-0.33-0.09-0.6-0.28-0.8
		c-0.19-0.2-0.47-0.3-0.85-0.3c-0.33,0-0.6,0.08-0.81,0.25c-0.21,0.16-0.32,0.37-0.32,0.63h-1.44c0-0.35,0.12-0.68,0.35-0.99
		c0.23-0.31,0.55-0.55,0.95-0.72c0.4-0.17,0.85-0.26,1.35-0.26c0.75,0,1.35,0.19,1.8,0.57c0.45,0.38,0.68,0.91,0.69,1.6v2.9
		c0,0.58,0.08,1.04,0.24,1.38v0.1H254.72z M253.13,31.22c0.28,0,0.55-0.07,0.81-0.21c0.25-0.14,0.44-0.32,0.57-0.56v-1.21h-0.78
		c-0.53,0-0.94,0.09-1.21,0.28c-0.27,0.19-0.4,0.45-0.4,0.79c0,0.28,0.09,0.5,0.28,0.66C252.58,31.13,252.82,31.22,253.13,31.22z"/>
	<path class="st6" d="M262.91,32.26h-1.44v-2.6h-2.5v2.6h-1.44v-6.43h1.44v2.68h2.5v-2.68h1.44V32.26z"/>
	<path class="st6" d="M268.29,32.26c-0.06-0.12-0.12-0.32-0.17-0.6c-0.46,0.48-1.02,0.72-1.69,0.72c-0.65,0-1.17-0.18-1.58-0.55
		c-0.41-0.37-0.61-0.82-0.61-1.37c0-0.69,0.25-1.21,0.76-1.58c0.51-0.37,1.24-0.55,2.19-0.55h0.89V27.9c0-0.33-0.09-0.6-0.28-0.8
		c-0.19-0.2-0.47-0.3-0.85-0.3c-0.33,0-0.6,0.08-0.81,0.25c-0.21,0.16-0.32,0.37-0.32,0.63h-1.44c0-0.35,0.12-0.68,0.35-0.99
		c0.23-0.31,0.55-0.55,0.95-0.72c0.4-0.17,0.85-0.26,1.35-0.26c0.75,0,1.35,0.19,1.8,0.57c0.45,0.38,0.68,0.91,0.69,1.6v2.9
		c0,0.58,0.08,1.04,0.24,1.38v0.1H268.29z M266.71,31.22c0.28,0,0.55-0.07,0.81-0.21c0.25-0.14,0.44-0.32,0.57-0.56v-1.21h-0.78
		c-0.53,0-0.94,0.09-1.21,0.28c-0.27,0.19-0.4,0.45-0.4,0.79c0,0.28,0.09,0.5,0.28,0.66C266.15,31.13,266.4,31.22,266.71,31.22z"/>
</g>
</svg>
