<?xml version="1.0" encoding="utf-8"?>
<svg  version="1.1" id="Layer_1" xmlns="http://www.w3.org/2000/svg" xmlns:xlink="http://www.w3.org/1999/xlink" x="0px" y="0px" viewBox="0 0 200 200" style="enable-background:new 0 0 200 200;" xml:space="preserve" width="23" height="23">
<style type="text/css">.st0{fill-rule:evenodd;clip-rule:evenodd;fill:#CCE9F6;} .st1{fill-rule:evenodd;clip-rule:evenodd;fill:#0093D3;}</style>
<path class="st0" d="M47.7,157c-5.7,3.1-5.1,0.5-4.5-0.8c5.2-12,2.3-16-0.7-17.9c-0.2-0.1-3.4-2.4-3.6-2.5 c-18.1-11.7-27.8-28.3-27.8-49.5c0-35.6,33.5-65,74.2-65s73.7,29.4,73.7,65c0,35.6-33,62.8-73.7,62.8c-6,0-8.1,0.1-17.4-0.5 c-2.1-0.2-4.6-1.1-6.4,0C55.4,152.3,51.9,154.7,47.7,157z"/>
<path class="st1" d="M168.6,159.9c-3.7,2.5,3.9,17.5,10.8,25.8c2,2.4-14.6,0-25.8-5.1c-8-3.7-11.2-9.1-13.5-8.9
	c-1.5,0.1-1.9,0.2-3.2,0.4c-4.5,0.9-8.9,1.4-13.9,1.4c-14.9,0-28.8-3.8-40.4-10.5c-0.3-0.2-2.3-1.1-2-1.1
	c10.4,0.4,15.6,0.2,22.8-1.4c0.6-0.1,0.9-0.1,2.5,0.3c5.4,1.3,11.2,1.9,17.1,1.9c5.1,0,10.1,0.2,14.8-0.4c1.8-0.2,5.3-0.7,7.1-0.3
	c2.9,0.6,5.8,4,8.8,6.5c4.2,3.5,5.2,2.9,4.7,1.7c-4.4-10.3-3.5-13.2-1-14.8c0.2-0.1,2.9-2,3.1-2.1c15.5-10,25.9-26.1,25.9-44.3
	c0-13.2-5.4-25.4-14.4-35c-0.1-0.1-0.1-0.1-0.1,0c0,0,0,0,0-0.1c-0.8-5.7-1.9-9-4.8-17.3c-0.1-0.3,0.6,0.4,1,0.6
	c17.6,11.8,29,30.5,29,51.4C197,129.6,185.9,148,168.6,159.9z M171.8,74.2 M85.4,157.1c-7.8,0-16.9-1.1-16.7-1.2c0,0,0.1,0,0.1,0
	c-0.1,0-0.1,0-0.1,0c-4.5-0.2-8.3,4.9-17.1,8.9c-12.5,5.7-30.7,8.3-28.5,5.6c7.6-9.2,16-25.7,11.9-28.5
	C15.8,128.8,3.5,108.4,3.5,85.5C3.5,46,40.2,14,85.4,14c45.2,0,81.9,32,81.9,71.5C167.2,125,130.6,157.1,85.4,157.1z M85.4,24.6
	c-38.4,0-70.1,27.7-70.1,61.4c0,20,11.6,37.8,28.6,48.9c0.2,0.1,3.2,2.2,3.4,2.4c2.8,1.8,3.8,5-1.1,16.4c-0.6,1.3-1.7,1.9,3.6-1.2
	c3.8-2.3,5.4-3.3,10.8-6.9c1.7-1.1,6.3-0.8,8.3-0.7c8.8,0.6,10.8,0.5,16.4,0.5c38.4,0,69.6-25.8,69.6-59.4
	C155,52.3,123.8,24.6,85.4,24.6z"/>
</svg>
